<svg xmlns="http://www.w3.org/2000/svg" viewBox="0 0 120 60"><path d="M14.5 32.4v-8.1c0-.7.3-1.3.9-1.6l7.3-4.6c.8-.5 1.5-1.1 2.2-1.7l12.7-13c.3-.3.8-.5 1.2-.5h59.3s2.4 1.1 3.7 7c1 4.4 1.7 7.9 2 9.4.1.5.2 1 .2 1.6v13.7h1.1c.8 0 1.4.6 1.4 1.4v3.2c0 .9-.7 1.7-1.7 1.7h-11s1.3-10.2-8.2-10.3c-9.5-.1-9.8 10.3-9.8 10.3H37.6s.8-10.7-8.5-10.5c-9.3.3-9.2 10.9-9.2 10.9h-5.4S12.1 39.7 12 38c-.1-.9 0-2 0-2.8 0-.7.4-1.4 1-1.7l1.5-1.1z"/><circle cx="28.8" cy="39.2" r="7.3"/><circle cx="85.3" cy="39.2" r="7.3"/><path d="M26.2 18.4l9.1-9.9c.3-.3.8-.5 1.2-.5H46v10.7l-19.8-.3z" fill="#fff"/><path d="M17.5 55.4l-2.1-6.7h-.1c.1 1.4.1 2.3.1 2.7v4h-1.6v-8.6h2.5l2 6.6 2.2-6.6H23v8.6h-1.7v-4.8c0-.3 0-.9.1-2h-.1l-2.2 6.7h-1.6zm9.3-6.5v2.6c0 .3 0 .9-.1 2l3-4.6h2.2v6.6h-1.7v-2.6c0-.5 0-1.1.1-2l-3 4.6h-2.1v-6.6h1.6zm11.2 0h2L37.4 52l2.8 3.4h-2l-2.7-3.3v3.3h-1.8v-6.6h1.8V52l2.5-3.1zm6.8 6.6c-.8 0-1.4-.3-1.8-.8h-.1c.1.5.1.9.1.9v2.7h-1.8v-9.4h1.5l.3.8h.1c.4-.6 1-1 1.9-1 .8 0 1.4.3 1.8.9s.7 1.4.7 2.5c0 .7-.1 1.3-.3 1.8s-.5.9-.9 1.2-1 .4-1.5.4zm-.6-5.3c-.4 0-.8.1-1 .4s-.3.7-.3 1.3v.2c0 .7.1 1.2.3 1.5s.5.5 1 .5c.8 0 1.2-.7 1.2-2 0-.6-.1-1.1-.3-1.5s-.5-.4-.9-.4zm10.5 1.9c0 1.1-.3 1.9-.8 2.5s-1.3.9-2.3.9c-.6 0-1.2-.1-1.7-.4s-.8-.7-1.1-1.2-.4-1.1-.4-1.8c0-1.1.3-1.9.8-2.5s1.3-.9 2.4-.9c.6 0 1.2.1 1.7.4s.8.7 1.1 1.2.3 1.1.3 1.8zm-4.5 0c0 .6.1 1.1.3 1.5s.6.5 1 .5c.5 0 .8-.2 1-.5s.3-.8.3-1.5c0-.6-.1-1.1-.3-1.5s-.6-.5-1-.5c-.5 0-.8.2-1 .5s-.3.9-.3 1.5zm13.3 3.3l-.3-.9c-.3.4-.6.6-.9.8s-.7.2-1.2.2c-.6 0-1.1-.2-1.5-.5s-.5-.9-.5-1.5c0-.7.2-1.2.7-1.5s1.2-.5 2.2-.5h1.1v-.3c0-.7-.3-1-1-1-.5 0-1.1.2-1.8.5l-.6-1.2c.8-.4 1.6-.6 2.5-.6.9 0 1.6.2 2 .6.5.4.7 1 .7 1.7v4.4h-1.4zm-.6-3h-.7c-.5 0-.9.1-1.2.3s-.4.4-.4.8c0 .5.3.8.9.8.4 0 .7-.1 1-.4s.4-.6.4-.9v-.6zm9.7-1.8c0 .4-.1.7-.3.9s-.5.4-1 .5c.5.1.8.2 1.1.5s.4.6.4 1c0 .6-.3 1.1-.8 1.5s-1.2.5-2.1.5h-3.4v-6.6h3.4c.9 0 1.6.1 2 .4s.7.7.7 1.3zm-1.8.1c0-.4-.3-.6-.9-.6h-1.5v1.3h1.3c.4 0 .7-.1.9-.2s.2-.2.2-.5zm.1 2.7c0-.3-.1-.4-.3-.6s-.5-.2-.9-.2h-1.4v1.5h1.5c.4 0 .7-.1.9-.2s.2-.3.2-.5zm8.7-4.5v1.3h-2.1v5.2h-1.8v-5.2h-2.2v-1.3h6.1zm7.2 3.2c0 1.1-.3 1.9-.8 2.5s-1.3.9-2.3.9c-.6 0-1.2-.1-1.7-.4s-.8-.7-1.1-1.2-.4-1.1-.4-1.8c0-1.1.3-1.9.8-2.5s1.3-.9 2.4-.9c.6 0 1.2.1 1.7.4s.8.7 1.1 1.2.3 1.1.3 1.8zm-4.5 0c0 .6.1 1.1.3 1.5s.6.5 1 .5c.5 0 .8-.2 1-.5s.3-.8.3-1.5c0-.6-.1-1.1-.3-1.5s-.6-.5-1-.5c-.5 0-.8.2-1 .5s-.3.9-.3 1.5zm5.6-.6c0-1.5.3-2.6.9-3.4s1.5-1.3 2.7-1.5c.6-.1 1.5-.2 2.6-.4l.2 1.6c-.5.1-1.4.2-2.7.4-.5.1-.9.2-1.1.4s-.4.4-.5.7-.2.7-.2 1.2h.1c.2-.3.5-.6.8-.7s.7-.3 1.1-.3c.8 0 1.4.2 1.9.7s.7 1.2.7 2.1c0 1.1-.3 1.9-.9 2.5s-1.4.9-2.4.9-1.8-.4-2.3-1.1-.9-1.8-.9-3.1zm3.3 2.6c.8 0 1.3-.6 1.3-1.8 0-1.1-.4-1.7-1.1-1.7-.2 0-.4 0-.6.1s-.4.2-.6.4-.3.3-.4.5c0 .8.1 1.4.4 1.8s.5.7 1 .7zm3.6-5.2h2l1.2 3.7c.1.3.2.7.2 1.1 0-.4.1-.8.3-1.1l1.2-3.7h1.9l-2.8 7.4c-.3.7-.6 1.2-1.1 1.5s-1 .5-1.6.5c-.3 0-.6 0-.9-.1v-1.4c.2.1.4.1.7.1.3 0 .6-.1.8-.3s.4-.5.6-.9l.1-.3-2.6-6.5zm10.4 6.6c-2 0-3.1-1.1-3.1-3.4 0-1.1.3-2 .8-2.6s1.3-.9 2.4-.9c.8 0 1.4.1 2 .4l-.5 1.4c-.3-.1-.5-.2-.8-.3s-.5-.1-.7-.1c-.9 0-1.4.7-1.4 2s.5 1.9 1.4 1.9c.3 0 .7 0 1-.1s.6-.2.9-.4V55c-.3.2-.6.3-.9.4s-.6.1-1.1.1z"/></svg>