<svg xmlns="http://www.w3.org/2000/svg" viewBox="0 0 120 60"><path d="M41.1 49.5h.7c.6-1.1 1-2.3 1.3-3.4s.6-2.4.7-3.7h5v7.1h1.1v4h-1.8V51h-5.4v2.5h-1.8v-4zm4.1-5.6c-.1.9-.3 1.8-.6 2.8s-.6 1.9-1 2.7H47v-5.5h-1.8zm9.4 3.7v-3.2h1.7v3.2l2.3-3.2h1.8L58 47.6l2.6 3.4h-1.9l-2.5-3.3V51h-1.7v-3.4L52.1 51h-1.9l2.6-3.4-2.4-3.1h1.8l2.4 3.1zm8.7-3.2V47c0 .3 0 .9-.1 2l3-4.6h2.2V51h-1.7v-2.6c0-.5 0-1.1.1-2l-3 4.6h-2.1v-6.6h1.6zm12.9 0V51h-1.8v-5.2H72V51h-1.8v-6.6h6zM12.1 20.1l22.7-3 17-12.6c.5-.4 1-.5 1.6-.5H98c1.2 0 2.4.6 3.1 1.7l6.4 9.8.3.1c1.4.5 2.2 1.8 2.3 3.3l.1 13.8s-6.5 7-8.3 7.7c0 0 .2-12.5-10-12.7S80 39.9 80 39.9l-44.5.1s.7-12.5-9.5-12.3c-10.2.2-12 10.7-12 10.7s-6.8-3.5-7-7.8c-.1-3 1.6-6.6 2.6-8.7.5-1 1.5-1.6 2.5-1.8z"/><circle cx="91.2" cy="38.4" r="8.9"/><circle cx="25.1" cy="38.6" r="8.9"/><path d="M39 17.4L52.4 6.5c.7-.6 1.6-.9 2.5-.9l8.5-.1-.7 11.3-23.7.6zM65.6 5.5l13.2-.1L81 16l-16.1.6zm15.6 0l9.2-.1c1.3 0 2.5.6 3.2 1.6l6.5 8.7-16.5.3-2.4-10.5z" fill="#fff"/></svg>