<svg xmlns="http://www.w3.org/2000/svg" viewBox="0 0 375.76 73.22"><defs><style>.cls-1,.cls-4{fill:#fff}.cls-2{fill:#31aadd}.cls-2,.cls-4{stroke:#fff;stroke-miterlimit:10}</style></defs><g id="Слой_2" data-name="Слой 2"><g id="Слой_1-2" data-name="Слой 1"><path class="cls-1" d="M23.65 45.13H11.76L9.9 50.57H0L13.17 17h9l13.5 33.57H25.5zm-6-17.62L14 37.9h7.38zm19.57 11.96V24.7h8.91v14.38c0 2.73 1.47 4.34 3.85 4.34s3.82-1.63 3.82-4.34V24.7h8.91v14.77c0 7.24-5.09 12-12.73 12s-12.76-4.76-12.76-12zm48.21 3.3v7.81H79.3c-5.72 0-9.2-3.5-9.2-9.25v-9.77h-4.73v-2.08L77 17.14h1.83v7.56h6.5v6.86H79v8.24a2.74 2.74 0 0 0 3 3zm2.42-5.13c0-8 6.07-13.78 14.51-13.78s14.51 5.76 14.51 13.78-6.1 13.78-14.51 13.78-14.51-5.79-14.51-13.78zm20.09 0a5.58 5.58 0 1 0-11.16 0 5.58 5.58 0 1 0 11.16 0zM165.72 17l-10.35 33.57h-8.13l-6.43-16.19-6.31 16.19h-8.13L115.86 17h9.92l5.44 19.33 8-19.17h3.2l8.13 19.18L155.88 17zm27.9-.43l.24 34H187l-.76-1.83a12.25 12.25 0 0 1-7.81 2.71c-7.91 0-13.57-5.77-13.57-13.81s5.66-13.72 13.57-13.72a12.28 12.28 0 0 1 7.91 2.78l.44-10zm-8.24 21.06a5.79 5.79 0 1 0-11.58 0 5.79 5.79 0 1 0 11.58 0zm24.08 13.79c-7.05 0-11.34-3.72-11.42-9.33h8.58c0 1.89 1.32 2.76 3 2.76 1.3 0 2.54-.67 2.54-2 0-1.49-2-1.92-4.44-2.33-4-.65-9.33-1.86-9.33-8.14 0-5.19 4.42-8.53 11-8.53s10.86 3.5 11 8.75h-8.34c0-1.65-1.11-2.42-2.73-2.42-1.43 0-2.39.71-2.39 1.91 0 1.47 2 1.82 4.44 2.25 4.09.73 9.52 1.58 9.52 8.14 0 5.41-4.56 8.95-11.44 8.95zM250.64 35v15.57h-8.91V36c0-3-1-4.5-3.37-4.5-2.7 0-4.38 1.91-4.38 5.23v13.84h-8.91V15.36H234v11a11 11 0 0 1 6.91-2.47c5.91.05 9.73 4.4 9.73 11.11z"/><circle class="cls-2" cx="178.6" cy="37.3" r="7.58" transform="rotate(-38.16 178.582 37.298)"/><path class="cls-1" d="M181.39 31.86c.15.87-1.64.28-3.72.64s-3.65 1.52-3.8.65 1.41-2.14 3.49-2.5 3.88.35 4.03 1.21zm-5.74 10.62c-.15-.87 1.64-.28 3.72-.64s3.65-1.52 3.8-.65-1.41 2.14-3.49 2.5-3.88-.34-4.03-1.21z"/><circle class="cls-2" cx="44.95" cy="9.12" r="8.62" transform="rotate(-37.66 44.943 9.123)"/><path class="cls-1" d="M48.18 3c.16 1-1.87.3-4.24.69s-4.17 1.7-4.33.7 1.62-2.42 4-2.81S48 2 48.18 3zm-6.63 12c-.16-1 1.87-.3 4.24-.69s4.17-1.7 4.33-.7-1.62 2.42-4 2.81S41.71 16 41.55 15z"/><circle class="cls-2" cx="33.86" cy="15.86" r="5.4" transform="rotate(-37.66 33.855 15.866)"/><path class="cls-1" d="M35.88 12c.1.62-1.17.19-2.66.43s-2.61 1.06-2.72.44 1-1.52 2.5-1.76 2.78.27 2.88.89zm-4.15 7.54c-.1-.62 1.17-.19 2.66-.43S37 18 37.1 18.66s-1 1.52-2.5 1.76-2.77-.26-2.87-.88z"/><circle class="cls-2" cx="35.41" cy="8.83" r="4.47" transform="rotate(-37.66 35.402 8.832)"/><path class="cls-1" d="M37.08 5.64c.08.52-1 .16-2.2.36s-2.16.88-2.25.36.84-1.26 2.07-1.46 2.3.22 2.38.74zm-3.44 6.23c-.08-.52 1-.16 2.2-.36s2.16-.88 2.25-.36-.84 1.26-2.09 1.45-2.27-.22-2.36-.73z"/><path d="M256.59 31.26s3.08-.92 3.83-2c.56-.81 3.39-4.58 4.79-6.45a13.37 13.37 0 0 1 2.09-2.21 29 29 0 0 1 7.37-4.26c4.12-1.5 1.75-.75 6.58-1.58a130.54 130.54 0 0 1 17.58-1.5c3.42.08 8.17.33 9.67.58a32 32 0 0 1 3.92 1.08l9.29 5.92s7.08-.25 9.5-.21 6.25.17 6.79.29 1.75 2.71 1.75 2.71 11 1.5 15 2.25 12.13 2.63 14.25 3.38 4.67 2 5.46 2.88.75 1.21.75 1.21l-3.79 9.25c-.25.29 1.63.42 1.63.42a2.11 2.11 0 0 1 1.5.79c.42.71.71 1.25.46 1.71a2.11 2.11 0 0 1-1 1.13c-.54.21-2.08.58-2.21.63a22 22 0 0 1-1.21 2.29 24.52 24.52 0 0 1-2.46 2.67c-.67.46-1.37 1-1.37 1s2.24 4.35 2.24 4.69-.5.63-.5.63-28.77 6.83-30.65 7c0 0-11.25-2.62-12.09-3.62a11 11 0 0 1-1.34-2s-2.66-1.78-2.84-2.34a9.39 9.39 0 0 0-.56-1.25 31.21 31.21 0 0 1-.44 5.69c-.44 1.28-1.31 4.47-2 5.37a35.32 35.32 0 0 1-4.16 4.21 12.78 12.78 0 0 1-1.87 1l-8.75.08s-3.79-.33-5.67-3.17a26.24 26.24 0 0 1-3-5.6c-.25-.81-.9-4-.9-4s-12.62-4.12-13.83-4.58-9-3.42-9.25-3.54l-.29-.12-5-2.33a8.91 8.91 0 0 1-.62 2.21 5.38 5.38 0 0 1-.71.93 2 2 0 0 1-1.26.72 4 4 0 0 1-1.74-.07 5.45 5.45 0 0 1-2.67-2.29 19.62 19.62 0 0 1-1-5c-.06-1.42 0-2 0-2s-1.84-3.45-1.94-3.88a7.71 7.71 0 0 1-.36-1.67 41 41 0 0 1 .13-4.91 14.43 14.43 0 0 1 .9-2.14z" fill="none" stroke="#fff" stroke-miterlimit="10"/><path class="cls-4" d="M265.41 27.46a.78.78 0 0 0 .27 1 4.91 4.91 0 0 0 1.66.86c.54 0 14.46-1.71 14.46-1.71s.42-.29.38-.58-4.75-9-5.12-9.16a3.51 3.51 0 0 0-1.75-.16c-.46.17-7.08 3.93-7.23 4.13-.33.39-1.96 4.11-2.67 5.62zm13.72-9.73a.75.75 0 0 1 .43-1.08 41.58 41.58 0 0 1 6.28-1.22c2.5-.25 10.67-.83 13.67-.92s10.33.42 10.83.5a8.72 8.72 0 0 1 2.17.63c.67.33 8.5 4.9 8.76 5.22s-1.51 0-2.26.49a5.1 5.1 0 0 0-1.67 1.58c-.17.42-8.25.08-12.42.5s-9.92 1-12.08 1.33c-1.75.27-6.3 1.47-8 1.92a.83.83 0 0 1-.94-.4z"/><ellipse class="cls-1" cx="303.55" cy="55.05" rx="7.38" ry="13.46"/><ellipse class="cls-1" cx="260.3" cy="44.39" rx="1.63" ry="6.2"/><path class="cls-4" d="M322.49 51.32s-2.12.06-2.75-.44-1.31-1-1.19-1.56.25-1.25 1.13-1.31a48.59 48.59 0 0 1 5 .25c1.19.13 9 0 10.19-.06s14.88-1.19 16.56-1.44 11.72-1.08 13-1.37 6.75-1.66 7.06-2.16 3.94 1.69 2.69 2.25-9 1.72-11.31 1.91-15 1.44-17.37 1.69-15.44 1.56-16.81 1.56-6.2.68-6.2.68z"/><ellipse class="cls-4" cx="338.66" cy="39.61" rx="5.23" ry="2.52" transform="rotate(-82.81 338.674 39.607)"/><ellipse class="cls-4" cx="370.41" cy="37.83" rx="3.99" ry="1.6" transform="rotate(-80.01 370.422 37.826)"/><path class="cls-1" d="M325.12 39.42s.94-2.91 1.53-3.12A7.15 7.15 0 0 1 328 36l6.31-.31s.59 0 .5.47-.91 2.78-.91 2.78-.19.44-.53.47c0 0-7.08.45-7.34.45s-.59 0-.7-.06a1.28 1.28 0 0 1-.21-.38zm-1.29 4.4s.94-2.91 1.53-3.12a7.15 7.15 0 0 1 1.34-.31l6.31-.31s.59 0 .5.47-.91 2.78-.91 2.78-.19.44-.53.47c0 0-7.08.45-7.34.45s-.59 0-.7-.06a1.28 1.28 0 0 1-.2-.37z"/><path class="cls-4" d="M365.17 41.83l-21.07 2.64a1 1 0 0 1-1-1l1.46-7.37a.79.79 0 0 1 .79-.79l20.75-1.21a1.08 1.08 0 0 1 1.08 1.08l-1 5.61a1 1 0 0 1-1.01 1.04z"/><circle class="cls-2" cx="298.59" cy="12.36" r="8.62" transform="rotate(-2.97 298.253 12.364)"/><path class="cls-1" d="M304.75 9.14c-.43.91-1.71-.82-3.88-1.85s-4.39-1-4-1.89 2.71-1.07 4.88 0 3.44 2.83 3 3.74zm-12.29 6.1c.43-.91 1.71.82 3.88 1.85s4.39 1 4 1.89-2.71 1.07-4.88 0-3.46-2.83-3-3.74z"/><circle class="cls-2" cx="284.43" cy="12.55" r="5.4" transform="rotate(-2.97 283.965 12.573)"/><path class="cls-1" d="M288.29 10.53c-.27.57-1.07-.51-2.43-1.16s-2.75-.61-2.48-1.18 1.7-.67 3.06 0 2.12 1.81 1.85 2.34zm-7.71 3.83c.27-.57 1.07.51 2.43 1.16s2.75.61 2.48 1.18-1.7.67-3.06 0-2.12-1.77-1.85-2.34z"/><circle class="cls-2" cx="290.08" cy="7.4" r="4.47" transform="rotate(-2.97 289.699 7.317)"/><path class="cls-1" d="M293.28 5.73c-.22.47-.89-.42-2-1s-2.28-.51-2.06-1 1.41-.55 2.53 0 1.75 1.52 1.53 2zm-6.38 3.16c.22-.47.89.42 2 1s2.28.51 2.06 1-1.41.55-2.53 0-1.76-1.53-1.53-2z"/><circle class="cls-2" cx="309.95" cy="15.77" r="4.47" transform="rotate(-2.97 309.552 15.745)"/><path class="cls-1" d="M313.15 14.1c-.22.47-.89-.42-2-1s-2.28-.51-2.06-1 1.41-.55 2.53 0 1.76 1.53 1.53 2zm-6.38 3.17c.22-.47.89.42 2 1s2.28.51 2.06 1-1.41.55-2.53 0-1.75-1.53-1.53-2z"/></g></g></svg>