<svg xmlns="http://www.w3.org/2000/svg" viewBox="0 0 120 60"><path d="M11.2 36.8S9.3 34.1 9.3 32c0-2.1 1.2-9.4 3.2-10.4 2.1-1 25.1-4.3 25.1-4.3S51.9 7.4 54.8 7.1c2.9-.3 28-.2 28-.2s19.5 6.8 20.9 8.4 2.4 3.9 2.4 3.9l.7 8.2 2.1 1.7.2 3.4-9.4 3.9s1.8-13.4-9.6-13.2-9.7 14.3-9.7 14.3l-47.4.1s3.5-13.7-8.5-14.2c-12.1-.5-9.7 13.8-9.7 13.8l-3.6-.4z"/><path d="M40.7 19.3L55 9.6c.7-.5 1.5-.7 2.3-.7h10.3l-.1 9.7-26.8.7zM70.2 9l.1 9.5 22.4-.2-.1-1.7c0-1.3-.7-2.4-1.8-3l-7-4c-.4-.3-.9-.4-1.5-.4L70.2 9z" fill="#fff"/><circle cx="90.3" cy="32.7" r="8.2"/><circle cx="24.1" cy="33.2" r="8.2"/><path d="M20.3 53.4h-1.9v-7.2h-2.2v.8c-.2 2-.5 3.5-.7 4.3-.2.8-.5 1.4-.8 1.7s-.9.5-1.5.5c-.3 0-.6 0-.9-.1v-1.5c.3.1.5.1.7.1.2 0 .4-.1.5-.3s.2-.6.4-1.1c.1-.5.3-1.4.4-2.6.2-1.2.3-2.3.5-3.4h5.5v8.8zm5.1.1c-1.1 0-1.9-.3-2.5-.9-.6-.6-.9-1.4-.9-2.5s.3-2 .8-2.6c.6-.6 1.3-.9 2.3-.9.9 0 1.7.3 2.2.8.5.5.8 1.3.8 2.2v.9h-4.3c0 .5.2.9.5 1.2s.7.4 1.2.4c.4 0 .8 0 1.1-.1.4-.1.7-.2 1.1-.4V53c-.3.2-.7.3-1 .4-.3.1-.8.1-1.3.1zm-.2-5.6c-.4 0-.7.1-.9.4-.2.2-.3.6-.4 1h2.6c0-.5-.1-.8-.4-1-.2-.3-.6-.4-.9-.4zm9.1-1.2v1.4h-2.8v5.3h-1.8v-6.7h4.6zm5.6 0h2l-2.7 3.2 2.9 3.5H40L37.4 50v3.4h-1.8v-6.7h1.8V50l2.5-3.3zm9.4 3.3c0 1.1-.3 1.9-.9 2.6-.6.6-1.4.9-2.4.9-.6 0-1.2-.1-1.7-.4-.5-.3-.9-.7-1.1-1.2-.3-.5-.4-1.1-.4-1.9 0-1.1.3-2 .9-2.6.6-.6 1.4-.9 2.4-.9.6 0 1.2.1 1.7.4s.9.7 1.1 1.2c.2.6.4 1.2.4 1.9zm-4.7 0c0 .7.1 1.2.3 1.5.2.3.6.5 1.1.5.5 0 .8-.2 1.1-.5.2-.3.3-.8.3-1.5s-.1-1.2-.3-1.5c-.3-.3-.6-.5-1.1-.5-.5 0-.8.2-1.1.5-.2.4-.3.9-.3 1.5zM57 48.5c0 .4-.1.7-.3.9-.2.3-.6.4-1 .5.5.1.9.2 1.1.5.3.3.4.6.4 1 0 .7-.3 1.2-.8 1.5-.5.3-1.2.5-2.2.5h-3.4v-6.7h3.4c.9 0 1.6.1 2.1.4.4.3.7.8.7 1.4zm-1.9.1c0-.4-.3-.6-1-.6h-1.5v1.3h1.3c.4 0 .7-.1.9-.2.2-.1.3-.2.3-.5zm.2 2.7c0-.3-.1-.5-.3-.6-.2-.1-.5-.2-.9-.2h-1.5v1.6h1.5c.4 0 .7-.1.9-.2.2-.1.3-.3.3-.6zm9.4-1.3c0 1.1-.3 1.9-.9 2.6-.6.6-1.4.9-2.4.9-.6 0-1.2-.1-1.7-.4-.5-.3-.9-.7-1.1-1.2s-.4-1.1-.4-1.9c0-1.1.3-2 .9-2.6.6-.6 1.4-.9 2.4-.9.6 0 1.2.1 1.7.4.5.3.9.7 1.1 1.2.3.6.4 1.2.4 1.9zm-4.6 0c0 .7.1 1.2.3 1.5.2.3.6.5 1.1.5.5 0 .8-.2 1.1-.5.2-.3.3-.8.3-1.5s-.1-1.2-.3-1.5c-.3-.3-.6-.5-1.1-.5-.5 0-.8.2-1.1.5-.2.4-.3.9-.3 1.5zm7.9-3.3v2.7c0 .3 0 1-.1 2.1l3.1-4.7h2.2v6.7h-1.8v-2.7c0-.5 0-1.1.1-2l-3.1 4.7h-2.2v-6.7H68zm4.7-2.9c-.1.7-.4 1.3-.8 1.6-.5.3-1.2.5-2.1.5-.9 0-1.7-.2-2.1-.5-.5-.3-.7-.9-.8-1.7h1.6c0 .4.1.7.3.9.2.2.5.2 1 .2.4 0 .7-.1.9-.3s.3-.5.4-.8h1.6zm9.9 9.6l-.4-.9c-.3.4-.6.7-1 .8-.3.2-.8.2-1.3.2-.6 0-1.2-.2-1.5-.6-.4-.4-.6-.9-.6-1.6 0-.7.2-1.2.7-1.6s1.3-.5 2.3-.6H82v-.3c0-.7-.3-1-1-1-.5 0-1.2.2-1.9.5l-.6-1.2c.8-.4 1.6-.6 2.6-.6.9 0 1.6.2 2.1.6s.7 1 .7 1.8v4.5h-1.3zm-.6-3.1h-.7c-.5 0-.9.1-1.2.3s-.4.4-.4.8c0 .5.3.8.9.8.4 0 .8-.1 1-.4.3-.2.4-.6.4-1v-.5zm10-1.8c0 .4-.1.7-.3.9-.2.3-.6.4-1 .5.5.1.9.2 1.1.5.3.3.4.6.4 1 0 .7-.3 1.2-.8 1.5-.5.3-1.2.5-2.2.5h-3.4v-6.7h3.4c.9 0 1.6.1 2.1.4.4.3.7.8.7 1.4zm-1.9.1c0-.4-.3-.6-1-.6h-1.5v1.3h1.3c.4 0 .7-.1.9-.2.2-.1.3-.2.3-.5zm.2 2.7c0-.3-.1-.5-.3-.6-.2-.1-.5-.2-.9-.2h-1.5v1.6h1.5c.4 0 .7-.1.9-.2.2-.1.3-.3.3-.6zm8.9-4.6v1.4H97v5.3h-1.8v-5.3H93v-1.4h6.2zm7.3 3.3c0 1.1-.3 1.9-.9 2.6-.6.6-1.4.9-2.4.9-.6 0-1.2-.1-1.7-.4-.5-.3-.9-.7-1.1-1.2s-.4-1.2-.4-1.9c0-1.1.3-2 .9-2.6.6-.6 1.4-.9 2.4-.9.6 0 1.2.1 1.7.4.5.3.9.7 1.1 1.2.3.6.4 1.2.4 1.9zm-4.6 0c0 .7.1 1.2.3 1.5.2.3.6.5 1.1.5.5 0 .8-.2 1.1-.5.2-.3.3-.8.3-1.5s-.1-1.2-.3-1.5c-.2-.3-.6-.5-1.1-.5-.5 0-.8.2-1.1.5-.2.4-.3.9-.3 1.5z"/></svg>