<?xml version="1.0" encoding="utf-8"?>
<!-- Generator: Adobe Illustrator 21.0.1, SVG Export Plug-In . SVG Version: 6.00 Build 0)  -->
<svg version="1.1" id="Слой_1" xmlns="http://www.w3.org/2000/svg" xmlns:xlink="http://www.w3.org/1999/xlink" x="0px" y="0px"
	 viewBox="0 0 120 60" style="enable-background:new 0 0 120 60;" xml:space="preserve">
<style type="text/css">
	.st0{fill:#FFFFFF;}
</style>
<g>
	<path d="M14.5,32.4v-8.1c0-0.7,0.3-1.3,0.9-1.6l7.3-4.6c0.8-0.5,1.5-1.1,2.2-1.7L37.6,3.4c0.3-0.3,0.8-0.5,1.2-0.5h59.3
		c0,0,2.4,1.1,3.7,7c1,4.4,1.7,7.9,2,9.4c0.1,0.5,0.2,1,0.2,1.6v13.7h1.1c0.8,0,1.4,0.6,1.4,1.4v3.2c0,0.9-0.7,1.7-1.7,1.7H93.8
		c0,0,1.3-10.2-8.2-10.3c-9.5-0.1-9.8,10.3-9.8,10.3H37.6c0,0,0.8-10.7-8.5-10.5c-9.3,0.3-9.2,10.9-9.2,10.9h-5.4
		c0,0-2.4-1.6-2.5-3.3c-0.1-0.9,0-2,0-2.8c0-0.7,0.4-1.4,1-1.7L14.5,32.4z"/>
	<circle cx="28.8" cy="39.2" r="7.3"/>
	<circle cx="85.3" cy="39.2" r="7.3"/>
	<path class="st0" d="M26.2,18.4l9.1-9.9C35.6,8.2,36.1,8,36.5,8h9.5v10.7L26.2,18.4z"/>
</g>
<g>
	<path d="M17.5,55.4l-2.1-6.7h-0.1c0.1,1.4,0.1,2.3,0.1,2.7v4h-1.6v-8.6h2.5l2,6.6h0l2.2-6.6h2.5v8.6h-1.7v-4.1c0-0.2,0-0.4,0-0.7
		s0-0.9,0.1-2h-0.1l-2.2,6.7H17.5z"/>
	<path d="M26.8,48.9v2.6c0,0.3,0,0.9-0.1,2l3-4.6h2.2v6.6h-1.7v-2.6c0-0.5,0-1.1,0.1-2l-3,4.6h-2.1v-6.6H26.8z"/>
	<path d="M38,48.9h2L37.4,52l2.8,3.4h-2l-2.7-3.3v3.3h-1.8v-6.6h1.8V52L38,48.9z"/>
	<path d="M44.8,55.5c-0.8,0-1.4-0.3-1.8-0.8h-0.1c0.1,0.5,0.1,0.9,0.1,0.9v2.7h-1.8v-9.4h1.5l0.3,0.8h0.1c0.4-0.6,1-1,1.9-1
		c0.8,0,1.4,0.3,1.8,0.9s0.7,1.4,0.7,2.5c0,0.7-0.1,1.3-0.3,1.8s-0.5,0.9-0.9,1.2S45.3,55.5,44.8,55.5z M44.2,50.2
		c-0.4,0-0.8,0.1-1,0.4s-0.3,0.7-0.3,1.3v0.2c0,0.7,0.1,1.2,0.3,1.5s0.5,0.5,1,0.5c0.8,0,1.2-0.7,1.2-2c0-0.6-0.1-1.1-0.3-1.5
		S44.6,50.2,44.2,50.2z"/>
	<path d="M54.7,52.1c0,1.1-0.3,1.9-0.8,2.5s-1.3,0.9-2.3,0.9c-0.6,0-1.2-0.1-1.7-0.4s-0.8-0.7-1.1-1.2s-0.4-1.1-0.4-1.8
		c0-1.1,0.3-1.9,0.8-2.5s1.3-0.9,2.4-0.9c0.6,0,1.2,0.1,1.7,0.4s0.8,0.7,1.1,1.2S54.7,51.4,54.7,52.1z M50.2,52.1
		c0,0.6,0.1,1.1,0.3,1.5s0.6,0.5,1,0.5c0.5,0,0.8-0.2,1-0.5s0.3-0.8,0.3-1.5c0-0.6-0.1-1.1-0.3-1.5s-0.6-0.5-1-0.5
		c-0.5,0-0.8,0.2-1,0.5S50.2,51.5,50.2,52.1z"/>
	<path d="M63.5,55.4l-0.3-0.9h0c-0.3,0.4-0.6,0.6-0.9,0.8s-0.7,0.2-1.2,0.2c-0.6,0-1.1-0.2-1.5-0.5s-0.5-0.9-0.5-1.5
		c0-0.7,0.2-1.2,0.7-1.5s1.2-0.5,2.2-0.5l1.1,0v-0.3c0-0.7-0.3-1-1-1c-0.5,0-1.1,0.2-1.8,0.5l-0.6-1.2c0.8-0.4,1.6-0.6,2.5-0.6
		c0.9,0,1.6,0.2,2,0.6c0.5,0.4,0.7,1,0.7,1.7v4.4H63.5z M62.9,52.4l-0.7,0c-0.5,0-0.9,0.1-1.2,0.3s-0.4,0.4-0.4,0.8
		c0,0.5,0.3,0.8,0.9,0.8c0.4,0,0.7-0.1,1-0.4s0.4-0.6,0.4-0.9V52.4z"/>
	<path d="M72.6,50.6c0,0.4-0.1,0.7-0.3,0.9s-0.5,0.4-1,0.5v0c0.5,0.1,0.8,0.2,1.1,0.5s0.4,0.6,0.4,1c0,0.6-0.3,1.1-0.8,1.5
		s-1.2,0.5-2.1,0.5h-3.4v-6.6h3.4c0.9,0,1.6,0.1,2,0.4S72.6,50,72.6,50.6z M70.8,50.7c0-0.4-0.3-0.6-0.9-0.6h-1.5v1.3h1.3
		c0.4,0,0.7-0.1,0.9-0.2S70.8,51,70.8,50.7z M70.9,53.4c0-0.3-0.1-0.4-0.3-0.6s-0.5-0.2-0.9-0.2h-1.4v1.5h1.5c0.4,0,0.7-0.1,0.9-0.2
		S70.9,53.6,70.9,53.4z"/>
	<path d="M79.6,48.9v1.3h-2.1v5.2h-1.8v-5.2h-2.2v-1.3H79.6z"/>
	<path d="M86.8,52.1c0,1.1-0.3,1.9-0.8,2.5s-1.3,0.9-2.3,0.9c-0.6,0-1.2-0.1-1.7-0.4s-0.8-0.7-1.1-1.2s-0.4-1.1-0.4-1.8
		c0-1.1,0.3-1.9,0.8-2.5s1.3-0.9,2.4-0.9c0.6,0,1.2,0.1,1.7,0.4s0.8,0.7,1.1,1.2S86.8,51.4,86.8,52.1z M82.3,52.1
		c0,0.6,0.1,1.1,0.3,1.5s0.6,0.5,1,0.5c0.5,0,0.8-0.2,1-0.5s0.3-0.8,0.3-1.5c0-0.6-0.1-1.1-0.3-1.5s-0.6-0.5-1-0.5
		c-0.5,0-0.8,0.2-1,0.5S82.3,51.5,82.3,52.1z"/>
	<path d="M87.9,51.5c0-1.5,0.3-2.6,0.9-3.4s1.5-1.3,2.7-1.5c0.6-0.1,1.5-0.2,2.6-0.4l0.2,1.6c-0.5,0.1-1.4,0.2-2.7,0.4
		c-0.5,0.1-0.9,0.2-1.1,0.4s-0.4,0.4-0.5,0.7s-0.2,0.7-0.2,1.2h0.1c0.2-0.3,0.5-0.6,0.8-0.7s0.7-0.3,1.1-0.3c0.8,0,1.4,0.2,1.9,0.7
		s0.7,1.2,0.7,2.1c0,1.1-0.3,1.9-0.9,2.5s-1.4,0.9-2.4,0.9s-1.8-0.4-2.3-1.1S87.9,52.8,87.9,51.5z M91.2,54.1c0.8,0,1.3-0.6,1.3-1.8
		c0-1.1-0.4-1.7-1.1-1.7c-0.2,0-0.4,0-0.6,0.1s-0.4,0.2-0.6,0.4s-0.3,0.3-0.4,0.5c0,0.8,0.1,1.4,0.4,1.8S90.7,54.1,91.2,54.1z"/>
	<path d="M94.8,48.9h2l1.2,3.7c0.1,0.3,0.2,0.7,0.2,1.1h0c0-0.4,0.1-0.8,0.3-1.1l1.2-3.7h1.9l-2.8,7.4c-0.3,0.7-0.6,1.2-1.1,1.5
		s-1,0.5-1.6,0.5c-0.3,0-0.6,0-0.9-0.1v-1.4c0.2,0.1,0.4,0.1,0.7,0.1c0.3,0,0.6-0.1,0.8-0.3s0.4-0.5,0.6-0.9l0.1-0.3L94.8,48.9z"/>
	<path d="M105.2,55.5c-2,0-3.1-1.1-3.1-3.4c0-1.1,0.3-2,0.8-2.6s1.3-0.9,2.4-0.9c0.8,0,1.4,0.1,2,0.4l-0.5,1.4
		c-0.3-0.1-0.5-0.2-0.8-0.3s-0.5-0.1-0.7-0.1c-0.9,0-1.4,0.7-1.4,2c0,1.3,0.5,1.9,1.4,1.9c0.3,0,0.7,0,1-0.1s0.6-0.2,0.9-0.4V55
		c-0.3,0.2-0.6,0.3-0.9,0.4S105.7,55.5,105.2,55.5z"/>
</g>
</svg>
