<?xml version="1.0" encoding="utf-8"?>
<!-- Generator: Adobe Illustrator 21.0.1, SVG Export Plug-In . SVG Version: 6.00 Build 0)  -->
<svg version="1.1" id="Слой_1" xmlns="http://www.w3.org/2000/svg" xmlns:xlink="http://www.w3.org/1999/xlink" x="0px" y="0px"
	 viewBox="0 0 120 60" style="enable-background:new 0 0 120 60;" xml:space="preserve">
<style type="text/css">
	.st0{fill:#FFFFFF;}
</style>
<g>
	<path d="M41.1,49.5h0.7c0.6-1.1,1-2.3,1.3-3.4s0.6-2.4,0.7-3.7h5v7.1h1.1v4h-1.8V51h-5.4v2.5h-1.8V49.5z M45.2,43.9
		c-0.1,0.9-0.3,1.8-0.6,2.8s-0.6,1.9-1,2.7H47v-5.5H45.2z"/>
	<path d="M54.6,47.6v-3.2h1.7v3.2l2.3-3.2h1.8L58,47.6l2.6,3.4h-1.9l-2.5-3.3V51h-1.7V47.6L52.1,51h-1.9l2.6-3.4l-2.4-3.1h1.8
		L54.6,47.6z"/>
	<path d="M63.3,44.4V47c0,0.3,0,0.9-0.1,2l3-4.6h2.2V51h-1.7v-2.6c0-0.5,0-1.1,0.1-2l-3,4.6h-2.1v-6.6H63.3z"/>
	<path d="M76.2,44.4V51h-1.8v-5.2H72V51h-1.8v-6.6H76.2z"/>
</g>
<path d="M12.1,20.1l22.7-3L51.8,4.5c0.5-0.4,1-0.5,1.6-0.5H98c1.2,0,2.4,0.6,3.1,1.7l6.4,9.8l0.3,0.1c1.4,0.5,2.2,1.8,2.3,3.3
	l0.1,13.8c0,0-6.5,7-8.3,7.7c0,0,0.2-12.5-10-12.7S80,39.9,80,39.9L35.5,40c0,0,0.7-12.5-9.5-12.3c-10.2,0.2-12,10.7-12,10.7
	s-6.8-3.5-7-7.8c-0.1-3,1.6-6.6,2.6-8.7C10.1,20.9,11.1,20.3,12.1,20.1z"/>
<circle cx="91.2" cy="38.4" r="8.9"/>
<circle cx="25.1" cy="38.6" r="8.9"/>
<path class="st0" d="M39,17.4L52.4,6.5c0.7-0.6,1.6-0.9,2.5-0.9l8.5-0.1l-0.7,11.3L39,17.4z"/>
<polygon class="st0" points="65.6,5.5 78.8,5.4 81,16 64.9,16.6 "/>
<path class="st0" d="M81.2,5.5l9.2-0.1c1.3,0,2.5,0.6,3.2,1.6l6.5,8.7L83.6,16L81.2,5.5z"/>
</svg>
