<svg xmlns="http://www.w3.org/2000/svg" viewBox="0 0 375.76 73.22"><defs><style>.cls-1,.cls-4{fill:#fff;}.cls-2{fill:#31aadd;}.cls-2,.cls-3,.cls-4{stroke:#fff;stroke-miterlimit:10;}.cls-3{fill:none;}</style></defs><title>logo4</title><g id="Слой_2" data-name="Слой 2"><g id="Слой_1-2" data-name="Слой 1"><path class="cls-1" d="M23.65,45.13H11.76L9.9,50.57H0L13.17,17h9L35.67,50.57H25.5Zm-6-17.62L14,37.9h7.38Z"/><path class="cls-1" d="M37.22,39.47V24.7h8.91V39.08c0,2.73,1.47,4.34,3.85,4.34s3.82-1.63,3.82-4.34V24.7h8.91V39.47c0,7.24-5.09,12-12.73,12S37.22,46.71,37.22,39.47Z"/><path class="cls-1" d="M85.43,42.77v7.81H79.3c-5.72,0-9.2-3.5-9.2-9.25V31.56H65.37V29.48L77,17.14h1.83V24.7h6.5v6.86H79V39.8a2.74,2.74,0,0,0,3,3Z"/><path class="cls-1" d="M87.85,37.64c0-8,6.07-13.78,14.51-13.78s14.51,5.76,14.51,13.78-6.1,13.78-14.51,13.78S87.85,45.63,87.85,37.64Zm20.09,0a5.58,5.58,0,1,0-11.16,0,5.58,5.58,0,1,0,11.16,0Z"/><path class="cls-1" d="M165.72,17,155.37,50.57h-8.13l-6.43-16.19L134.5,50.57h-8.13L115.86,17h9.92l5.44,19.33,8-19.17h3.2l8.13,19.18L155.88,17Z"/><path class="cls-1" d="M193.62,16.57l.24,34H187l-.76-1.83a12.25,12.25,0,0,1-7.81,2.71c-7.91,0-13.57-5.77-13.57-13.81s5.66-13.72,13.57-13.72a12.28,12.28,0,0,1,7.91,2.78l.44-10Zm-8.24,21.06a5.79,5.79,0,1,0-11.58,0,5.79,5.79,0,1,0,11.58,0Z"/><path class="cls-1" d="M209.46,51.42c-7.05,0-11.34-3.72-11.42-9.33h8.58c0,1.89,1.32,2.76,3,2.76,1.3,0,2.54-.67,2.54-2,0-1.49-2-1.92-4.44-2.33-4-.65-9.33-1.86-9.33-8.14,0-5.19,4.42-8.53,11-8.53s10.86,3.5,11,8.75h-8.34c0-1.65-1.11-2.42-2.73-2.42-1.43,0-2.39.71-2.39,1.91,0,1.47,2,1.82,4.44,2.25,4.09.73,9.52,1.58,9.52,8.14,0,5.41-4.56,8.95-11.44,8.95Z"/><path class="cls-1" d="M250.64,35V50.57h-8.91V36c0-3-1-4.5-3.37-4.5-2.7,0-4.38,1.91-4.38,5.23V50.57h-8.91V15.36H234v11a11,11,0,0,1,6.91-2.47C246.82,23.94,250.64,28.29,250.64,35Z"/><circle class="cls-2" cx="178.6" cy="37.3" r="7.58" transform="translate(15.12 118.31) rotate(-38.16)"/><path class="cls-1" d="M181.39,31.86c.15.87-1.64.28-3.72.64s-3.65,1.52-3.8.65,1.41-2.14,3.49-2.5S181.24,31,181.39,31.86Z"/><path class="cls-1" d="M175.65,42.48c-.15-.87,1.64-.28,3.72-.64s3.65-1.52,3.8-.65-1.41,2.14-3.49,2.5S175.8,43.35,175.65,42.48Z"/><circle class="cls-2" cx="44.95" cy="9.12" r="8.62" transform="translate(3.79 29.36) rotate(-37.66)"/><path class="cls-1" d="M48.18,3c.16,1-1.87.3-4.24.69s-4.17,1.7-4.33.7,1.62-2.42,4-2.81S48,2,48.18,3Z"/><path class="cls-1" d="M41.55,15c-.16-1,1.87-.3,4.24-.69s4.17-1.7,4.33-.7-1.62,2.42-4,2.81S41.71,16,41.55,15Z"/><circle class="cls-2" cx="33.86" cy="15.86" r="5.4" transform="translate(-2.64 23.99) rotate(-37.66)"/><path class="cls-1" d="M35.88,12c.1.62-1.17.19-2.66.43s-2.61,1.06-2.72.44,1-1.52,2.5-1.76S35.78,11.38,35.88,12Z"/><path class="cls-1" d="M31.73,19.54c-.1-.62,1.17-.19,2.66-.43S37,18,37.1,18.66s-1,1.52-2.5,1.76S31.83,20.16,31.73,19.54Z"/><circle class="cls-2" cx="35.41" cy="8.83" r="4.47" transform="translate(1.98 23.47) rotate(-37.66)"/><path class="cls-1" d="M37.08,5.64c.08.52-1,.16-2.2.36s-2.16.88-2.25.36.84-1.26,2.07-1.46S37,5.12,37.08,5.64Z"/><path class="cls-1" d="M33.64,11.87c-.08-.52,1-.16,2.2-.36s2.16-.88,2.25-.36S37.25,12.41,36,12.6,33.73,12.38,33.64,11.87Z"/><path class="cls-3" d="M256.59,31.26s3.08-.92,3.83-2c.56-.81,3.39-4.58,4.79-6.45a13.37,13.37,0,0,1,2.09-2.21,29,29,0,0,1,7.37-4.26c4.12-1.5,1.75-.75,6.58-1.58a130.54,130.54,0,0,1,17.58-1.5c3.42.08,8.17.33,9.67.58a32,32,0,0,1,3.92,1.08l9.29,5.92s7.08-.25,9.5-.21,6.25.17,6.79.29,1.75,2.71,1.75,2.71,11,1.5,15,2.25,12.13,2.63,14.25,3.38,4.67,2,5.46,2.88.75,1.21.75,1.21l-3.79,9.25c-.25.29,1.63.42,1.63.42a2.11,2.11,0,0,1,1.5.79c.42.71.71,1.25.46,1.71a2.11,2.11,0,0,1-1,1.13c-.54.21-2.08.58-2.21.63a22,22,0,0,1-1.21,2.29,24.52,24.52,0,0,1-2.46,2.67c-.67.46-1.37,1-1.37,1S369,57.59,369,57.93s-.5.63-.5.63-28.77,6.83-30.65,7c0,0-11.25-2.62-12.09-3.62a11,11,0,0,1-1.34-2s-2.66-1.78-2.84-2.34a9.39,9.39,0,0,0-.56-1.25,31.21,31.21,0,0,1-.44,5.69c-.44,1.28-1.31,4.47-2,5.37a35.32,35.32,0,0,1-4.16,4.21,12.78,12.78,0,0,1-1.87,1l-8.75.08s-3.79-.33-5.67-3.17a26.24,26.24,0,0,1-3-5.6c-.25-.81-.9-4-.9-4s-12.62-4.12-13.83-4.58-9-3.42-9.25-3.54l-.29-.12-5-2.33a8.91,8.91,0,0,1-.62,2.21,5.38,5.38,0,0,1-.71.93,2,2,0,0,1-1.26.72,4,4,0,0,1-1.74-.07,5.45,5.45,0,0,1-2.67-2.29,19.62,19.62,0,0,1-1-5c-.06-1.42,0-2,0-2s-1.84-3.45-1.94-3.88a7.71,7.71,0,0,1-.36-1.67,41,41,0,0,1,.13-4.91A14.43,14.43,0,0,1,256.59,31.26Z"/><path class="cls-4" d="M265.41,27.46a.78.78,0,0,0,.27,1,4.91,4.91,0,0,0,1.66.86c.54,0,14.46-1.71,14.46-1.71s.42-.29.38-.58-4.75-9-5.12-9.16a3.51,3.51,0,0,0-1.75-.16c-.46.17-7.08,3.93-7.23,4.13C267.75,22.23,266.12,25.95,265.41,27.46Z"/><path class="cls-4" d="M279.13,17.73a.75.75,0,0,1,.43-1.08,41.58,41.58,0,0,1,6.28-1.22c2.5-.25,10.67-.83,13.67-.92s10.33.42,10.83.5a8.72,8.72,0,0,1,2.17.63c.67.33,8.5,4.9,8.76,5.22s-1.51,0-2.26.49a5.1,5.1,0,0,0-1.67,1.58c-.17.42-8.25.08-12.42.5s-9.92,1-12.08,1.33c-1.75.27-6.3,1.47-8,1.92a.83.83,0,0,1-.94-.4Z"/><ellipse class="cls-1" cx="303.55" cy="55.05" rx="7.38" ry="13.46"/><ellipse class="cls-1" cx="260.3" cy="44.39" rx="1.63" ry="6.2"/><path class="cls-4" d="M322.49,51.32s-2.12.06-2.75-.44-1.31-1-1.19-1.56.25-1.25,1.13-1.31a48.59,48.59,0,0,1,5,.25c1.19.13,9,0,10.19-.06s14.88-1.19,16.56-1.44,11.72-1.08,13-1.37,6.75-1.66,7.06-2.16,3.94,1.69,2.69,2.25-9,1.72-11.31,1.91-15,1.44-17.37,1.69-15.44,1.56-16.81,1.56S322.49,51.32,322.49,51.32Z"/><ellipse class="cls-4" cx="338.66" cy="39.61" rx="5.23" ry="2.52" transform="translate(256.99 370.66) rotate(-82.81)"/><ellipse class="cls-4" cx="370.41" cy="37.83" rx="3.99" ry="1.6" transform="translate(268.91 396.07) rotate(-80.01)"/><path class="cls-1" d="M325.12,39.42s.94-2.91,1.53-3.12A7.15,7.15,0,0,1,328,36l6.31-.31s.59,0,.5.47-.91,2.78-.91,2.78-.19.44-.53.47c0,0-7.08.45-7.34.45s-.59,0-.7-.06A1.28,1.28,0,0,1,325.12,39.42Z"/><path class="cls-1" d="M323.83,43.82s.94-2.91,1.53-3.12a7.15,7.15,0,0,1,1.34-.31l6.31-.31s.59,0,.5.47-.91,2.78-.91,2.78-.19.44-.53.47c0,0-7.08.45-7.34.45s-.59,0-.7-.06A1.28,1.28,0,0,1,323.83,43.82Z"/><path class="cls-4" d="M365.17,41.83l-21.07,2.64a1,1,0,0,1-1-1l1.46-7.37a.79.79,0,0,1,.79-.79l20.75-1.21a1.08,1.08,0,0,1,1.08,1.08l-1,5.61A1,1,0,0,1,365.17,41.83Z"/><circle class="cls-2" cx="298.59" cy="12.36" r="8.62" transform="translate(-0.24 15.47) rotate(-2.97)"/><path class="cls-1" d="M304.75,9.14c-.43.91-1.71-.82-3.88-1.85s-4.39-1-4-1.89,2.71-1.07,4.88,0S305.19,8.23,304.75,9.14Z"/><path class="cls-1" d="M292.46,15.24c.43-.91,1.71.82,3.88,1.85s4.39,1,4,1.89-2.71,1.07-4.88,0S292,16.15,292.46,15.24Z"/><circle class="cls-2" cx="284.43" cy="12.55" r="5.4" transform="translate(-0.27 14.73) rotate(-2.97)"/><path class="cls-1" d="M288.29,10.53c-.27.57-1.07-.51-2.43-1.16s-2.75-.61-2.48-1.18,1.7-.67,3.06,0S288.56,10,288.29,10.53Z"/><path class="cls-1" d="M280.58,14.36c.27-.57,1.07.51,2.43,1.16s2.75.61,2.48,1.18-1.7.67-3.06,0S280.31,14.93,280.58,14.36Z"/><circle class="cls-2" cx="290.08" cy="7.4" r="4.47" transform="translate(0.01 15.02) rotate(-2.97)"/><path class="cls-1" d="M293.28,5.73c-.22.47-.89-.42-2-1s-2.28-.51-2.06-1,1.41-.55,2.53,0S293.5,5.25,293.28,5.73Z"/><path class="cls-1" d="M286.9,8.89c.22-.47.89.42,2,1s2.28.51,2.06,1-1.41.55-2.53,0S286.67,9.36,286.9,8.89Z"/><circle class="cls-2" cx="309.95" cy="15.77" r="4.47" transform="translate(-0.4 16.06) rotate(-2.97)"/><path class="cls-1" d="M313.15,14.1c-.22.47-.89-.42-2-1s-2.28-.51-2.06-1,1.41-.55,2.53,0S313.38,13.63,313.15,14.1Z"/><path class="cls-1" d="M306.77,17.27c.22-.47.89.42,2,1s2.28.51,2.06,1-1.41.55-2.53,0S306.55,17.74,306.77,17.27Z"/></g></g></svg>