<?xml version="1.0" encoding="utf-8"?>
<!-- Generator: Adobe Illustrator 21.0.1, SVG Export Plug-In . SVG Version: 6.00 Build 0)  -->
<svg version="1.1" id="Слой_1" xmlns="http://www.w3.org/2000/svg" xmlns:xlink="http://www.w3.org/1999/xlink" x="0px" y="0px"
	 viewBox="0 0 120 60" style="enable-background:new 0 0 120 60;" xml:space="preserve">
<style type="text/css">
	.st0{fill:#FFFFFF;}
</style>
<path d="M11.2,36.8c0,0-1.9-2.7-1.9-4.8c0-2.1,1.2-9.4,3.2-10.4c2.1-1,25.1-4.3,25.1-4.3S51.9,7.4,54.8,7.1c2.9-0.3,28-0.2,28-0.2
	s19.5,6.8,20.9,8.4s2.4,3.9,2.4,3.9l0.7,8.2l2.1,1.7l0.2,3.4l-9.4,3.9c0,0,1.8-13.4-9.6-13.2s-9.7,14.3-9.7,14.3l-47.4,0.1
	c0,0,3.5-13.7-8.5-14.2c-12.1-0.5-9.7,13.8-9.7,13.8L11.2,36.8z"/>
<path class="st0" d="M40.7,19.3L55,9.6c0.7-0.5,1.5-0.7,2.3-0.7h10.3l-0.1,9.7L40.7,19.3z"/>
<path class="st0" d="M70.2,9l0.1,9.5l22.4-0.2l-0.1-1.7c0-1.3-0.7-2.4-1.8-3l-7-4c-0.4-0.3-0.9-0.4-1.5-0.4L70.2,9z"/>
<circle cx="90.3" cy="32.7" r="8.2"/>
<circle cx="24.1" cy="33.2" r="8.2"/>
<g>
	<path d="M20.3,53.4h-1.9v-7.2h-2.2L16.2,47c-0.2,2-0.5,3.5-0.7,4.3c-0.2,0.8-0.5,1.4-0.8,1.7s-0.9,0.5-1.5,0.5
		c-0.3,0-0.6,0-0.9-0.1v-1.5C12.6,52,12.8,52,13,52c0.2,0,0.4-0.1,0.5-0.3s0.2-0.6,0.4-1.1c0.1-0.5,0.3-1.4,0.4-2.6
		c0.2-1.2,0.3-2.3,0.5-3.4h5.5V53.4z"/>
	<path d="M25.4,53.5c-1.1,0-1.9-0.3-2.5-0.9C22.3,52,22,51.2,22,50.1c0-1.1,0.3-2,0.8-2.6c0.6-0.6,1.3-0.9,2.3-0.9
		c0.9,0,1.7,0.3,2.2,0.8c0.5,0.5,0.8,1.3,0.8,2.2v0.9h-4.3c0,0.5,0.2,0.9,0.5,1.2s0.7,0.4,1.2,0.4c0.4,0,0.8,0,1.1-0.1
		c0.4-0.1,0.7-0.2,1.1-0.4v1.4c-0.3,0.2-0.7,0.3-1,0.4C26.4,53.5,25.9,53.5,25.4,53.5z M25.2,47.9c-0.4,0-0.7,0.1-0.9,0.4
		c-0.2,0.2-0.3,0.6-0.4,1h2.6c0-0.5-0.1-0.8-0.4-1C25.9,48,25.5,47.9,25.2,47.9z"/>
	<path d="M34.3,46.7v1.4h-2.8v5.3h-1.8v-6.7H34.3z"/>
	<path d="M39.9,46.7h2l-2.7,3.2l2.9,3.5h-2.1L37.4,50v3.4h-1.8v-6.7h1.8V50L39.9,46.7z"/>
	<path d="M49.3,50c0,1.1-0.3,1.9-0.9,2.6c-0.6,0.6-1.4,0.9-2.4,0.9c-0.6,0-1.2-0.1-1.7-0.4c-0.5-0.3-0.9-0.7-1.1-1.2
		c-0.3-0.5-0.4-1.1-0.4-1.9c0-1.1,0.3-2,0.9-2.6c0.6-0.6,1.4-0.9,2.4-0.9c0.6,0,1.2,0.1,1.7,0.4s0.9,0.7,1.1,1.2
		C49.1,48.7,49.3,49.3,49.3,50z M44.6,50c0,0.7,0.1,1.2,0.3,1.5c0.2,0.3,0.6,0.5,1.1,0.5c0.5,0,0.8-0.2,1.1-0.5
		c0.2-0.3,0.3-0.8,0.3-1.5c0-0.7-0.1-1.2-0.3-1.5C46.8,48.2,46.5,48,46,48c-0.5,0-0.8,0.2-1.1,0.5C44.7,48.9,44.6,49.4,44.6,50z"/>
	<path d="M57,48.5c0,0.4-0.1,0.7-0.3,0.9c-0.2,0.3-0.6,0.4-1,0.5v0c0.5,0.1,0.9,0.2,1.1,0.5c0.3,0.3,0.4,0.6,0.4,1
		c0,0.7-0.3,1.2-0.8,1.5c-0.5,0.3-1.2,0.5-2.2,0.5h-3.4v-6.7h3.4c0.9,0,1.6,0.1,2.1,0.4C56.7,47.4,57,47.9,57,48.5z M55.1,48.6
		c0-0.4-0.3-0.6-1-0.6h-1.5v1.3h1.3c0.4,0,0.7-0.1,0.9-0.2C55,49,55.1,48.9,55.1,48.6z M55.3,51.3c0-0.3-0.1-0.5-0.3-0.6
		c-0.2-0.1-0.5-0.2-0.9-0.2h-1.5v1.6h1.5c0.4,0,0.7-0.1,0.9-0.2C55.2,51.8,55.3,51.6,55.3,51.3z"/>
	<path d="M64.7,50c0,1.1-0.3,1.9-0.9,2.6c-0.6,0.6-1.4,0.9-2.4,0.9c-0.6,0-1.2-0.1-1.7-0.4c-0.5-0.3-0.9-0.7-1.1-1.2
		s-0.4-1.1-0.4-1.9c0-1.1,0.3-2,0.9-2.6c0.6-0.6,1.4-0.9,2.4-0.9c0.6,0,1.2,0.1,1.7,0.4c0.5,0.3,0.9,0.7,1.1,1.2
		C64.6,48.7,64.7,49.3,64.7,50z M60.1,50c0,0.7,0.1,1.2,0.3,1.5c0.2,0.3,0.6,0.5,1.1,0.5c0.5,0,0.8-0.2,1.1-0.5
		c0.2-0.3,0.3-0.8,0.3-1.5c0-0.7-0.1-1.2-0.3-1.5C62.3,48.2,62,48,61.5,48c-0.5,0-0.8,0.2-1.1,0.5C60.2,48.9,60.1,49.4,60.1,50z"/>
	<path d="M68,46.7v2.7c0,0.3,0,1-0.1,2.1l3.1-4.7h2.2v6.7h-1.8v-2.7c0-0.5,0-1.1,0.1-2l-3.1,4.7h-2.2v-6.7H68z M72.7,43.8
		c-0.1,0.7-0.4,1.3-0.8,1.6c-0.5,0.3-1.2,0.5-2.1,0.5c-0.9,0-1.7-0.2-2.1-0.5c-0.5-0.3-0.7-0.9-0.8-1.7h1.6c0,0.4,0.1,0.7,0.3,0.9
		c0.2,0.2,0.5,0.2,1,0.2c0.4,0,0.7-0.1,0.9-0.3s0.3-0.5,0.4-0.8H72.7z"/>
	<path d="M82.6,53.4l-0.4-0.9h0c-0.3,0.4-0.6,0.7-1,0.8c-0.3,0.2-0.8,0.2-1.3,0.2c-0.6,0-1.2-0.2-1.5-0.6c-0.4-0.4-0.6-0.9-0.6-1.6
		c0-0.7,0.2-1.2,0.7-1.6s1.3-0.5,2.3-0.6l1.2,0v-0.3c0-0.7-0.3-1-1-1c-0.5,0-1.2,0.2-1.9,0.5l-0.6-1.2c0.8-0.4,1.6-0.6,2.6-0.6
		c0.9,0,1.6,0.2,2.1,0.6s0.7,1,0.7,1.8v4.5H82.6z M82,50.3l-0.7,0c-0.5,0-0.9,0.1-1.2,0.3s-0.4,0.4-0.4,0.8c0,0.5,0.3,0.8,0.9,0.8
		c0.4,0,0.8-0.1,1-0.4c0.3-0.2,0.4-0.6,0.4-1V50.3z"/>
	<path d="M92,48.5c0,0.4-0.1,0.7-0.3,0.9c-0.2,0.3-0.6,0.4-1,0.5v0c0.5,0.1,0.9,0.2,1.1,0.5c0.3,0.3,0.4,0.6,0.4,1
		c0,0.7-0.3,1.2-0.8,1.5c-0.5,0.3-1.2,0.5-2.2,0.5h-3.4v-6.7h3.4c0.9,0,1.6,0.1,2.1,0.4C91.7,47.4,92,47.9,92,48.5z M90.1,48.6
		c0-0.4-0.3-0.6-1-0.6h-1.5v1.3h1.3c0.4,0,0.7-0.1,0.9-0.2C90,49,90.1,48.9,90.1,48.6z M90.3,51.3c0-0.3-0.1-0.5-0.3-0.6
		c-0.2-0.1-0.5-0.2-0.9-0.2h-1.5v1.6h1.5c0.4,0,0.7-0.1,0.9-0.2C90.2,51.8,90.3,51.6,90.3,51.3z"/>
	<path d="M99.2,46.7v1.4H97v5.3h-1.8v-5.3h-2.2v-1.4H99.2z"/>
	<path d="M106.5,50c0,1.1-0.3,1.9-0.9,2.6c-0.6,0.6-1.4,0.9-2.4,0.9c-0.6,0-1.2-0.1-1.7-0.4c-0.5-0.3-0.9-0.7-1.1-1.2
		S100,50.7,100,50c0-1.1,0.3-2,0.9-2.6c0.6-0.6,1.4-0.9,2.4-0.9c0.6,0,1.2,0.1,1.7,0.4c0.5,0.3,0.9,0.7,1.1,1.2
		C106.4,48.7,106.5,49.3,106.5,50z M101.9,50c0,0.7,0.1,1.2,0.3,1.5c0.2,0.3,0.6,0.5,1.1,0.5c0.5,0,0.8-0.2,1.1-0.5
		c0.2-0.3,0.3-0.8,0.3-1.5c0-0.7-0.1-1.2-0.3-1.5c-0.2-0.3-0.6-0.5-1.1-0.5c-0.5,0-0.8,0.2-1.1,0.5C102,48.9,101.9,49.4,101.9,50z"
		/>
</g>
</svg>
