<?xml version="1.0" encoding="utf-8"?>
<!-- Generator: Adobe Illustrator 21.0.1, SVG Export Plug-In . SVG Version: 6.00 Build 0)  -->
<svg version="1.1" id="Слой_1" xmlns="http://www.w3.org/2000/svg" xmlns:xlink="http://www.w3.org/1999/xlink" x="0px" y="0px"
	 viewBox="0 0 120 60" style="enable-background:new 0 0 120 60;" xml:space="preserve">
<style type="text/css">
	.st0{fill:#FFFFFF;}
</style>
<g>
	<path d="M11.3,37.6L8.8,37c-1-0.2-1.8-0.9-2.3-1.8c-0.8-1.4-1.7-3.6-1.4-5.3l0.3-1.6c0.1-0.8,0.4-1.6,0.7-2.4c0.8-2,2.5-5.6,4.1-6
		c2.1-0.5,23.7-3.1,25.5-3.8c1.3-0.5,8.9-5.5,13-8.2c2.1-1.4,4.4-2.3,6.9-2.7c1.5-0.3,3.2-0.5,5.1-0.5c4.4-0.1,18.7,0,22.4,0
		c0.6,0,1.2,0.1,1.7,0.2l2.3,0.4c1.6,0.3,3.2,0.7,4.7,1.4c4.5,1.9,14.2,6,15.1,6.9c1.1,1.1,2,2.6,2.1,4.3s1,9.3,1,9.3
		s2.6,0.8,2.8,1.3s0,4.3,0,4.3l-10.3,3.9c0,0,1.6-13.8-9.2-14.2c-5.9-0.3-9,2.9-10.5,5.8c-1.1,2.2-1.5,4.7-1.1,7.1l0.3,2.4H30.9
		c0,0,4-14.8-9.3-15.4C8.3,21.6,11.3,37.6,11.3,37.6z"/>
	<path class="st0" d="M39.8,17.7l28.1-0.1l0.2-10.7c0,0-10.4-0.9-15.5,1.7S39.8,17.7,39.8,17.7z"/>
	<path class="st0" d="M95.2,17.2l-23.8,0.4V6.8c0,0,10.2-0.5,15.5,1.7c3.3,1.4,6.8,3.6,8.3,5.4C95.8,14.7,96.2,17.1,95.2,17.2z"/>
	<circle cx="21" cy="32.8" r="9.3"/>
	<circle cx="92" cy="32.8" r="9.3"/>
</g>
<g>
	<path d="M22.4,45v9.5h-1.6v-8.2h-2.9L17.7,50c-0.1,1.1-0.2,2-0.4,2.7c-0.2,0.6-0.5,1.1-0.9,1.4c-0.4,0.3-1,0.4-1.6,0.4h-0.4v-1.3
		l0.3,0c0.4,0,0.7-0.2,0.9-0.4c0.2-0.2,0.4-0.6,0.5-1c0.1-0.5,0.2-1.2,0.2-2.1l0.2-4.6H22.4z"/>
	<path d="M27.4,54.6c-1,0-1.8-0.3-2.4-0.9C24.3,53,24,52.1,24,51.1v-0.2c0-0.7,0.1-1.3,0.4-1.9c0.3-0.6,0.7-1,1.1-1.3
		c0.5-0.3,1-0.5,1.6-0.5c1,0,1.7,0.3,2.2,0.9c0.5,0.6,0.8,1.5,0.8,2.6v0.6h-4.6c0,0.6,0.2,1,0.6,1.4c0.3,0.3,0.8,0.5,1.3,0.5
		c0.7,0,1.3-0.3,1.8-0.9l0.9,0.8c-0.3,0.4-0.7,0.7-1.1,1C28.5,54.5,27.9,54.6,27.4,54.6z M27.2,48.5c-0.4,0-0.8,0.2-1.1,0.5
		c-0.3,0.3-0.4,0.7-0.5,1.3h3v-0.1c0-0.5-0.2-0.9-0.4-1.2S27.6,48.5,27.2,48.5z"/>
	<path d="M36.1,48.7H33v5.8h-1.6v-7.1h4.6V48.7z"/>
	<path d="M39.5,51.7h-0.8v2.8h-1.6v-7.1h1.6v2.8h0.7l1.9-2.8h2l-2.5,3.4l2.8,3.7h-2.1L39.5,51.7z"/>
	<path d="M43.7,50.9c0-0.7,0.1-1.3,0.4-1.9s0.7-1,1.2-1.3c0.5-0.3,1.1-0.4,1.7-0.4c1,0,1.7,0.3,2.3,0.9c0.6,0.6,0.9,1.4,1,2.4l0,0.4
		c0,0.7-0.1,1.3-0.4,1.9c-0.3,0.5-0.6,1-1.1,1.3s-1.1,0.4-1.7,0.4c-1,0-1.8-0.3-2.4-1S43.7,52,43.7,50.9L43.7,50.9z M45.3,51
		c0,0.7,0.1,1.3,0.4,1.7c0.3,0.4,0.7,0.6,1.3,0.6c0.5,0,1-0.2,1.2-0.6c0.3-0.4,0.4-1,0.4-1.8c0-0.7-0.2-1.3-0.5-1.7
		c-0.3-0.4-0.7-0.6-1.2-0.6c-0.5,0-0.9,0.2-1.2,0.6C45.5,49.6,45.3,50.2,45.3,51z"/>
	<path d="M51.7,54.4v-7.1h2.9c1,0,1.7,0.2,2.2,0.5c0.5,0.3,0.8,0.8,0.8,1.5c0,0.3-0.1,0.6-0.3,0.9s-0.5,0.5-0.9,0.6
		c0.5,0.1,0.8,0.3,1.1,0.6c0.3,0.3,0.4,0.6,0.4,1c0,0.7-0.2,1.2-0.7,1.5S56,54.4,55,54.4H51.7z M53.3,50.3h1.3
		c0.9,0,1.3-0.3,1.3-0.8c0-0.6-0.4-0.8-1.3-0.9h-1.4V50.3z M53.3,51.4v1.8h1.7c0.8,0,1.2-0.3,1.2-0.9c0-0.6-0.4-0.9-1.2-0.9H53.3z"
		/>
	<path d="M58.9,50.9c0-0.7,0.1-1.3,0.4-1.9s0.7-1,1.2-1.3c0.5-0.3,1.1-0.4,1.7-0.4c1,0,1.7,0.3,2.3,0.9c0.6,0.6,0.9,1.4,1,2.4l0,0.4
		c0,0.7-0.1,1.3-0.4,1.9c-0.3,0.5-0.6,1-1.1,1.3c-0.5,0.3-1.1,0.4-1.7,0.4c-1,0-1.8-0.3-2.4-1S58.9,52,58.9,50.9L58.9,50.9z
		 M60.5,51c0,0.7,0.1,1.3,0.4,1.7c0.3,0.4,0.7,0.6,1.3,0.6s1-0.2,1.2-0.6c0.3-0.4,0.4-1,0.4-1.8c0-0.7-0.2-1.3-0.5-1.7
		c-0.3-0.4-0.7-0.6-1.2-0.6c-0.5,0-0.9,0.2-1.2,0.6C60.7,49.6,60.5,50.2,60.5,51z"/>
	<path d="M71.2,47.4h1.6v7.1h-1.6v-4.7l-2.8,4.7h-1.6v-7.1h1.6v4.7L71.2,47.4z M72,44.7c0,0.5-0.2,1-0.6,1.3
		c-0.4,0.3-0.9,0.5-1.5,0.5s-1.1-0.2-1.5-0.5c-0.4-0.3-0.6-0.8-0.6-1.3h1.2c0,0.3,0.1,0.5,0.2,0.7c0.2,0.2,0.4,0.2,0.7,0.2
		c0.3,0,0.5-0.1,0.7-0.2c0.2-0.2,0.2-0.4,0.2-0.7H72z"/>
	<path d="M82,54.4c-0.1-0.1-0.1-0.4-0.2-0.7c-0.5,0.5-1.1,0.8-1.9,0.8c-0.7,0-1.3-0.2-1.7-0.6c-0.4-0.4-0.7-0.9-0.7-1.5
		c0-0.8,0.3-1.3,0.8-1.7c0.6-0.4,1.4-0.6,2.4-0.6h1v-0.5c0-0.4-0.1-0.7-0.3-0.9c-0.2-0.2-0.5-0.3-0.9-0.3c-0.4,0-0.7,0.1-0.9,0.3
		c-0.2,0.2-0.3,0.4-0.3,0.7h-1.6c0-0.4,0.1-0.7,0.4-1.1c0.3-0.3,0.6-0.6,1-0.8c0.4-0.2,0.9-0.3,1.5-0.3c0.8,0,1.5,0.2,2,0.6
		c0.5,0.4,0.7,1,0.8,1.8v3.2c0,0.6,0.1,1.1,0.3,1.5v0.1H82z M80.3,53.3c0.3,0,0.6-0.1,0.9-0.2c0.3-0.2,0.5-0.4,0.6-0.6v-1.3h-0.9
		c-0.6,0-1,0.1-1.3,0.3c-0.3,0.2-0.4,0.5-0.4,0.9c0,0.3,0.1,0.5,0.3,0.7C79.7,53.2,80,53.3,80.3,53.3z"/>
	<path d="M85.2,54.4v-7.1H88c1,0,1.7,0.2,2.2,0.5c0.5,0.3,0.8,0.8,0.8,1.5c0,0.3-0.1,0.6-0.3,0.9c-0.2,0.3-0.5,0.5-0.9,0.6
		c0.5,0.1,0.8,0.3,1.1,0.6s0.4,0.6,0.4,1c0,0.7-0.2,1.2-0.7,1.5c-0.5,0.3-1.2,0.5-2.1,0.5H85.2z M86.7,50.3H88
		c0.9,0,1.3-0.3,1.3-0.8c0-0.6-0.4-0.8-1.3-0.9h-1.4V50.3z M86.7,51.4v1.8h1.7c0.8,0,1.2-0.3,1.2-0.9c0-0.6-0.4-0.9-1.2-0.9H86.7z"
		/>
	<path d="M98.1,48.6h-2.3v5.8h-1.6v-5.8H92v-1.3h6.1V48.6z"/>
	<path d="M98.7,50.9c0-0.7,0.1-1.3,0.4-1.9s0.7-1,1.2-1.3s1.1-0.4,1.7-0.4c1,0,1.7,0.3,2.3,0.9c0.6,0.6,0.9,1.4,1,2.4l0,0.4
		c0,0.7-0.1,1.3-0.4,1.9c-0.3,0.5-0.6,1-1.1,1.3s-1.1,0.4-1.7,0.4c-1,0-1.8-0.3-2.4-1C99,52.9,98.7,52,98.7,50.9L98.7,50.9z
		 M100.3,51c0,0.7,0.1,1.3,0.4,1.7c0.3,0.4,0.7,0.6,1.3,0.6s1-0.2,1.2-0.6c0.3-0.4,0.4-1,0.4-1.8c0-0.7-0.2-1.3-0.5-1.7
		c-0.3-0.4-0.7-0.6-1.2-0.6c-0.5,0-0.9,0.2-1.2,0.6C100.4,49.6,100.3,50.2,100.3,51z"/>
</g>
</svg>
