<svg xmlns="http://www.w3.org/2000/svg" viewBox="0 0 120 60"><path d="M11.3 37.6L8.8 37c-1-.2-1.8-.9-2.3-1.8-.8-1.4-1.7-3.6-1.4-5.3l.3-1.6c.1-.8.4-1.6.7-2.4.8-2 2.5-5.6 4.1-6 2.1-.5 23.7-3.1 25.5-3.8 1.3-.5 8.9-5.5 13-8.2 2.1-1.4 4.4-2.3 6.9-2.7 1.5-.3 3.2-.5 5.1-.5 4.4-.1 18.7 0 22.4 0 .6 0 1.2.1 1.7.2l2.3.4c1.6.3 3.2.7 4.7 1.4 4.5 1.9 14.2 6 15.1 6.9 1.1 1.1 2 2.6 2.1 4.3s1 9.3 1 9.3 2.6.8 2.8 1.3 0 4.3 0 4.3l-10.3 3.9s1.6-13.8-9.2-14.2c-5.9-.3-9 2.9-10.5 5.8-1.1 2.2-1.5 4.7-1.1 7.1l.3 2.4H30.9s4-14.8-9.3-15.4c-13.3-.8-10.3 15.2-10.3 15.2z"/><path d="M39.8 17.7l28.1-.1.2-10.7S57.7 6 52.6 8.6s-12.8 9.1-12.8 9.1zm55.4-.5l-23.8.4V6.8s10.2-.5 15.5 1.7c3.3 1.4 6.8 3.6 8.3 5.4.6.8 1 3.2 0 3.3z" fill="#fff"/><circle cx="21" cy="32.8" r="9.3"/><circle cx="92" cy="32.8" r="9.3"/><path d="M22.4 45v9.5h-1.6v-8.2h-2.9l-.2 3.7c-.1 1.1-.2 2-.4 2.7-.2.6-.5 1.1-.9 1.4-.4.3-1 .4-1.6.4h-.4v-1.3h.3c.4 0 .7-.2.9-.4.2-.2.4-.6.5-1 .1-.5.2-1.2.2-2.1l.2-4.6h5.9zm5 9.6c-1 0-1.8-.3-2.4-.9-.7-.7-1-1.6-1-2.6v-.2c0-.7.1-1.3.4-1.9.3-.6.7-1 1.1-1.3.5-.3 1-.5 1.6-.5 1 0 1.7.3 2.2.9.5.6.8 1.5.8 2.6v.6h-4.6c0 .6.2 1 .6 1.4.3.3.8.5 1.3.5.7 0 1.3-.3 1.8-.9l.9.8c-.3.4-.7.7-1.1 1-.5.4-1.1.5-1.6.5zm-.2-6.1c-.4 0-.8.2-1.1.5-.3.3-.4.7-.5 1.3h3v-.1c0-.5-.2-.9-.4-1.2s-.6-.5-1-.5zm8.9.2H33v5.8h-1.6v-7.1H36v1.3zm3.4 3h-.8v2.8h-1.6v-7.1h1.6v2.8h.7l1.9-2.8h2l-2.5 3.4 2.8 3.7h-2.1l-2-2.8zm4.2-.8c0-.7.1-1.3.4-1.9s.7-1 1.2-1.3c.5-.3 1.1-.4 1.7-.4 1 0 1.7.3 2.3.9.6.6.9 1.4 1 2.4v.4c0 .7-.1 1.3-.4 1.9-.3.5-.6 1-1.1 1.3s-1.1.4-1.7.4c-1 0-1.8-.3-2.4-1s-1-1.6-1-2.7zm1.6.1c0 .7.1 1.3.4 1.7.3.4.7.6 1.3.6.5 0 1-.2 1.2-.6.3-.4.4-1 .4-1.8 0-.7-.2-1.3-.5-1.7-.3-.4-.7-.6-1.2-.6s-.9.2-1.2.6c-.2.4-.4 1-.4 1.8zm6.4 3.4v-7.1h2.9c1 0 1.7.2 2.2.5.5.3.8.8.8 1.5 0 .3-.1.6-.3.9s-.5.5-.9.6c.5.1.8.3 1.1.6.3.3.4.6.4 1 0 .7-.2 1.2-.7 1.5s-1.2.5-2.2.5h-3.3zm1.6-4.1h1.3c.9 0 1.3-.3 1.3-.8 0-.6-.4-.8-1.3-.9h-1.4v1.7zm0 1.1v1.8H55c.8 0 1.2-.3 1.2-.9 0-.6-.4-.9-1.2-.9h-1.7zm5.6-.5c0-.7.1-1.3.4-1.9s.7-1 1.2-1.3c.5-.3 1.1-.4 1.7-.4 1 0 1.7.3 2.3.9.6.6.9 1.4 1 2.4v.4c0 .7-.1 1.3-.4 1.9-.3.5-.6 1-1.1 1.3-.5.3-1.1.4-1.7.4-1 0-1.8-.3-2.4-1s-1-1.6-1-2.7zm1.6.1c0 .7.1 1.3.4 1.7.3.4.7.6 1.3.6s1-.2 1.2-.6c.3-.4.4-1 .4-1.8 0-.7-.2-1.3-.5-1.7-.3-.4-.7-.6-1.2-.6s-.9.2-1.2.6c-.2.4-.4 1-.4 1.8zm10.7-3.6h1.6v7.1h-1.6v-4.7l-2.8 4.7h-1.6v-7.1h1.6v4.7l2.8-4.7zm.8-2.7c0 .5-.2 1-.6 1.3-.4.3-.9.5-1.5.5s-1.1-.2-1.5-.5c-.4-.3-.6-.8-.6-1.3H69c0 .3.1.5.2.7.2.2.4.2.7.2.3 0 .5-.1.7-.2.2-.2.2-.4.2-.7H72zm10 9.7c-.1-.1-.1-.4-.2-.7-.5.5-1.1.8-1.9.8-.7 0-1.3-.2-1.7-.6-.4-.4-.7-.9-.7-1.5 0-.8.3-1.3.8-1.7.6-.4 1.4-.6 2.4-.6h1v-.5c0-.4-.1-.7-.3-.9-.2-.2-.5-.3-.9-.3s-.7.1-.9.3c-.2.2-.3.4-.3.7h-1.6c0-.4.1-.7.4-1.1.3-.3.6-.6 1-.8.4-.2.9-.3 1.5-.3.8 0 1.5.2 2 .6.5.4.7 1 .8 1.8v3.2c0 .6.1 1.1.3 1.5v.1H82zm-1.7-1.1c.3 0 .6-.1.9-.2.3-.2.5-.4.6-.6v-1.3h-.9c-.6 0-1 .1-1.3.3-.3.2-.4.5-.4.9 0 .3.1.5.3.7.2.1.5.2.8.2zm4.9 1.1v-7.1H88c1 0 1.7.2 2.2.5.5.3.8.8.8 1.5 0 .3-.1.6-.3.9-.2.3-.5.5-.9.6.5.1.8.3 1.1.6s.4.6.4 1c0 .7-.2 1.2-.7 1.5-.5.3-1.2.5-2.1.5h-3.3zm1.5-4.1H88c.9 0 1.3-.3 1.3-.8 0-.6-.4-.8-1.3-.9h-1.4v1.7zm0 1.1v1.8h1.7c.8 0 1.2-.3 1.2-.9 0-.6-.4-.9-1.2-.9h-1.7zm11.4-2.8h-2.3v5.8h-1.6v-5.8H92v-1.3h6.1v1.3zm.6 2.3c0-.7.1-1.3.4-1.9s.7-1 1.2-1.3 1.1-.4 1.7-.4c1 0 1.7.3 2.3.9.6.6.9 1.4 1 2.4v.4c0 .7-.1 1.3-.4 1.9-.3.5-.6 1-1.1 1.3s-1.1.4-1.7.4c-1 0-1.8-.3-2.4-1-.7-.7-1-1.6-1-2.7zm1.6.1c0 .7.1 1.3.4 1.7.3.4.7.6 1.3.6s1-.2 1.2-.6c.3-.4.4-1 .4-1.8 0-.7-.2-1.3-.5-1.7-.3-.4-.7-.6-1.2-.6s-.9.2-1.2.6c-.3.4-.4 1-.4 1.8z"/></svg>